<?xml version="1.0" encoding="UTF-8" standalone="no"?>
<!-- Created with Inkscape (http://www.inkscape.org/) -->

<svg
   xmlns:svg="http://www.w3.org/2000/svg"
   xmlns="http://www.w3.org/2000/svg"
   version="1.2"
   width="688"
   height="199"
   viewBox="0 0 688 199"
   id="Layer_1"
   xml:space="preserve"
   style="overflow:inherit"><defs
   id="defs7" />
<path
   d="m 688,70 c -13.616,3.961 -35.052,3.201 -46,6 -17.865,-2.669 -34.508,-2.689 -47,-1 -0.898,-0.505 -5.904,-3.953 -9,-1 -2.287,-3.298 -7.287,-3.375 -10,-2 1.329,3.337 3.636,5.698 6,8 -3.484,0.294 0.084,2.706 -2,3 -1.5,-1.167 -2.445,-2.888 -5,-3 0.387,4.337 -4.816,1.533 -5,3 15.986,10.566 46.564,0.546 64,9 -7.883,0.072 -12.584,5.005 -20,7 -6.381,1.717 -17.088,0.392 -19,5 -5.754,-5.68 -11.41,1.502 -17,-1 -0.105,2.562 -0.566,4.768 -2,6 0.469,-4.8 -5.813,-2.879 -7,-1 -2.085,-4.123 -6.285,-2.868 -11,-2 -5.309,-7.951 -15.138,0.186 -23,-2 -2.449,1.329 1.1,3.721 -1,4 -2.27,-2.904 -4.145,0.283 -4,1 -0.211,-1.122 -1.109,-1.557 -2,-2 -0.956,1.862 2.995,3.342 0,4 -1.964,-5.115 -20.414,-0.417 -19,2 -0.41,-1.257 -1.289,-2.044 -3,-2 -0.395,1.721 1.484,2.563 0,3 -0.41,-1.257 -1.289,-2.044 -3,-2 -2.449,1.329 1.1,3.721 -1,4 0.249,-2.031 -3.658,-4.853 -5,-2 0.145,1.182 1.781,2.267 0,3 1.19,-2.973 -4.215,-4.296 -5,-2 3.16,4.52 14.496,6.153 15,10 -0.638,-0.839 -4.675,-3.131 -5,-1 5.896,6.654 10.546,15.568 22,19 -1.453,0.547 -5.168,-1.169 -5,1 4.57,1.661 6.973,10.043 6,14 3.296,-2.693 3.484,1.273 4,2 11.686,3.436 21.428,12.365 33,18 8.626,0.525 17.546,2.799 24,8 4.204,-3.646 9.043,9.578 3,8 0.564,-3.589 -7.98,-6.667 -12,-9 0.548,3.798 -4.317,-1.027 -5,3 -3.21,-7.901 -16.886,-6.611 -23,-10 -2.816,-1.561 -0.822,-2.681 -3,-3 -0.216,-0.031 0.043,2.436 -1,2 -0.508,-0.212 -0.887,-2.499 -2,-3 -3.996,-1.798 -8.121,-4.925 -11,-6 0.021,0.008 -0.18,2.515 -1,2 -1.462,-0.916 -5.197,-8.679 -8,-6 0.448,-0.428 2.884,2.152 1,2 -4.73,-8.603 -14.083,-12.584 -19,-21 -1.322,0.012 -0.914,1.753 -2,2 -3,-8.474 -3.412,-7.872 -8,-14 -0.225,0.776 -0.027,1.973 -1,2 0.455,-5.759 -4.715,-10.201 -7,-10 -0.103,-5.564 -3.975,-7.358 -7,-10 -1.771,1.228 -5.271,0.729 -6,3 -1.766,-3.062 -5.938,-2.378 -7,1 -1.996,-7.82 -9.645,-1.293 -15,-1 0.14,-0.008 -0.426,-1.909 -1,-2 -10.456,-1.66 -32.383,-0.496 -48,-1 -0.23,-0.008 0.01,2.06 -1,2 -7.775,-0.46 -15.932,-3.255 -23,-4 4.21,13.683 12.164,26.318 17,34 -0.012,-1.009 -1.753,-1.258 -2,0 -0.174,3.015 7.414,7.216 5,6 -1.721,0.395 -2.563,-1.484 -3,0 6.082,10.624 3.484,20.069 16,20 1.483,2.576 2.599,4.807 3,6 0.211,-1.209 1.109,-0.615 2,0 0.102,-1.122 -1.453,-1.557 0,-2 3.646,3.314 21.925,5.076 29,10 -1.535,0.39 -0.146,1.2 1,0 -0.547,1.453 1.168,5.169 -1,5 -12.053,-9.802 -33.119,-4.636 -43,-17 -8.746,2.78 -14.802,-24.575 -20,-33 -0.211,1.122 -1.109,1.557 -2,2 0.605,-2.395 1.438,-4.562 1,-8 -7.424,-7.889 -7.779,-16.789 -14,-26 -6.046,-1.558 -12.322,2.11 -18,3 -2.617,0.41 -8.512,1.181 -10,1 -5.663,-0.688 -2.597,-0.5 -5,0 -2.016,0.419 -5.771,-2.805 -4,2 -0.848,-2.152 -2.463,-3.537 -6,-3 -0.395,1.721 1.484,2.563 0,3 -0.007,-2.727 -6.084,-4.493 -8,-2 0.754,2.304 6.178,5.078 4,7 -7.041,-19.008 -34.66,0.872 -46,-8 -3.873,2.633 -8.553,-1.034 -12,-2 -2.471,3.502 3.121,3.148 -1,5 -1.408,-2.842 1.413,-5.937 -4,-6 -0.466,1.912 3.082,4.305 -1,4 0.802,-3.469 -1.489,-3.844 -1,-7 -4.163,0.786 -4.976,-4.969 -9,-7 1.799,-11.729 -13.444,-10.786 -22,-15 6.957,10.621 29.823,32.631 10,45 -4.195,-8.111 -13.163,2.958 -18,4 -1.32,-2.503 3.953,-3.131 1,-4 -1.932,1.174 -5.068,-0.917 -7,2 -5.947,-5.362 -26.215,2.029 -28,-3 -4.523,1.144 -9.43,1.903 -13,4 0.28,-4.274 -4.38,-0.065 -6,0 -0.395,-1.721 1.484,-2.563 0,-3 -4.81,0.954 -5.633,3.034 -6,-1 -6.61,1.723 -10.944,5.723 -12,13 -0.156,-1.177 0.172,-2.839 -1,-3 -1.169,2.032 0.528,4.083 -3,2 -0.981,5.617 -1.154,10.406 -3,3 -2.561,1.857 -1.657,8.862 -4,3 -0.798,3.568 -3.24,6.088 -3,8 -3.174,-3.431 -3.428,4.515 -5,6 -0.615,-2.678 -5.232,2.248 -6,7 -4.149,-3.393 -13.36,13.985 -12,21 -1.072,-2.595 -0.636,-6.697 -3,-8 -9.367,7.21 -24.204,10.186 -33,13 -0.46,-3.576 -17.866,-1.441 -14,5 -0.667,0 -1.333,0 -2,0 -1.378,-1.289 -0.99,-4.344 -1,-7 15.139,-3.259 26.319,-10.214 43,-12 4.104,-13.194 19.791,-22.164 22,-31 12.438,-8.229 22.47,-18.863 33,-29 12.38,-9.713 38.961,-9.114 56,-11 -7.907,-11.426 -21.421,-17.246 -23,-35 -4.564,0.897 -5.668,-1.665 -9,-2 0.239,1.427 1.646,1.687 2,3 -6.604,-0.703 -9.172,-0.737 -13,-2 -0.156,1.177 0.172,2.838 -1,3 -0.261,-1.556 -2.193,-0.693 -3,0 -0.096,-1.571 0.134,-3.467 -2,-3 -1.651,0.016 -0.56,2.774 -2,3 -3.522,-5.94 -6.368,-1.263 -12,-6 -4.548,4.786 -12.926,5.74 -17,11 -1.01,6.422 1.27,11.602 0,20 -7.564,2.717 -3.98,14.57 -2,20 -5.992,-0.674 -4.354,-8.979 -7,-13 -2.584,5.306 0.326,6.279 -4,2 -0.271,3.396 0.774,8.107 -1,10 -5.101,1.434 -4.273,-3.06 -7,-4 -0.29,4.29 1.393,6.607 3,9 -2.984,-0.016 -3.4,-2.6 -6,-3 0,2.333 0,4.667 0,7 -5.219,-2.121 -0.562,-12.31 -10,-12 -0.449,3.884 -3.077,5.589 -4,9 4.701,2.632 8.368,6.299 11,11 C 91.363,138.342 83.071,120.158 95,113 94.641,105.359 92.405,99.595 91,93 58.069,99.675 13.275,92.56 0,62 0,58 0,54 0,50 16.633,9.546 62.052,3.333 109,1 c 0,-0.333 0,-0.667 0,-1 0.333,0 0.667,0 1,0 15.504,3.709 30.238,-0.541 48,6 C 137.514,7.573 114.236,5.258 102,5 98.816,4.933 96.477,7.882 94,8 92.322,8.08 89.893,6.073 88,6 80.618,5.717 72.724,9.597 64,9 57.973,12.306 49.869,13.535 42,15 35.644,21.924 24.013,25.282 15,32 8.996,42.304 1.232,51.128 4,62 c 2.128,8.358 10.633,13.479 16,19 24.713,7.751 50.043,16.694 74,5 5.73,-20.471 11.856,-42.183 36,-43 5.227,-7.891 19.166,-3.961 26,-7 1.848,-0.821 0.708,-4.891 2,-1 5.639,-1.191 26.019,-2.651 29,0 5.416,-0.186 13.76,-2.301 17,4 4.541,-1.567 13.452,-1.476 14,4 13.576,3.497 39.67,-4.065 59,3 -0.281,-1.615 0.945,-1.722 1,-3 0.074,4.142 4.162,-0.057 6,0 1.52,0.047 -0.799,1.726 1,2 5.462,0.833 19.772,-4.854 20,4 8.352,-5.59 8.201,-0.673 16,-4 1.354,0.979 1.296,3.371 3,4 5.675,-3.541 9.046,4.601 14,-1 5.262,4.36 10.816,0.322 19,1 -0.43,1.57 -3.146,0.854 -2,4 2.503,-0.831 3.928,-2.74 7,-3 -0.649,1.017 -2.299,1.034 -2,3 2.746,1.481 3.737,-2.575 6,-3 -8.375,1.572 10.931,3.008 11,3 3.075,-0.375 5.889,-2.311 8,-3 1.484,0.437 -0.395,1.28 0,3 3.611,-0.336 7.015,-2.525 5,2 3.651,-0.016 4.49,-2.843 7,-4 -0.529,0.804 -1.043,1.624 -1,3 6.768,-2.829 10.367,1.72 20,-3 0.385,2.875 5.619,0.587 9,4 -0.044,-1.71 0.743,-2.59 2,-3 3.404,1.067 -2.783,0.311 -1,3 7.526,-2.409 10.771,-0.662 17,-4 1.265,4.035 12.18,-0.721 14,-1 2.259,0.56 -1.213,1.56 1,3 4.182,-0.722 3.959,0.362 6,-2 1.44,0.226 0.349,2.984 2,3 11.255,-1.689 27.337,-6.323 32,3 11.066,-7.73 20.248,5.453 30,3 4.25,-1.069 4.596,-3.156 10,-3 6.044,0.175 15.621,1.214 23,3 3.862,-3.525 5.32,-0.062 7,-3 0.824,2.675 0.479,3.743 5,2 -0.732,0.934 -1.818,1.515 -3,2 6.559,6.95 17.634,8.289 30,6 8.673,3.258 32.143,4.275 40,3 6.22,-1.01 0.643,-0.205 6,1 5.127,1.152 11.015,-1.669 14,-3 5.806,5.127 19.521,-2.188 28,0 0,0.667 0,1.333 0,2 z M 563,91 c 2.965,5.911 16.422,4.332 27,5 -5.878,-5.184 -18.438,-0.939 -27,-5 z m 39,4 c -1.064,-2.27 -6.286,-0.381 -9,-1 1.253,4.223 5.408,0.342 9,1 z m -306,1 c -3.305,0.89 -0.307,4.092 -5,1 1.378,1.289 0.99,4.344 1,7 7.54,1.681 9.506,-1.041 15,-1 -3.203,-5.023 -9.359,-1.159 -11,-7 z"
   id="path3"
   style="fill-rule:evenodd" />
</svg>