<?xml version="1.0" encoding="UTF-8" standalone="no"?>
<!-- Created with Inkscape (http://www.inkscape.org/) -->

<svg
   xmlns:svg="http://www.w3.org/2000/svg"
   xmlns="http://www.w3.org/2000/svg"
   version="1.0"
   width="100%"
   height="100%"
   viewBox="0 0 245 602.5"
   id="Layer_1"
   xml:space="preserve"><defs
   id="defs159" />
<path
   d="m 108.2,600.8 c -1,5 -4.5,-2.5 -5.5,-2.5 -1,0 -3,-3 -7,-13 -4,-10 5.5,-24.5 7.5,-22.5 2,2 5,3 5,4 0,1 -7,17 -6,18 1,1 6,16 6,16 z"
   id="path3" />
<path
   d="m 114.2,577.8 c 1,2 4.2,8.4 7,9 5,1 13,-18 11,-18 -2,0 -21,-2 -21,0 0,2 3,9 3,9 z"
   id="path5" />
<path
   d="m 101.2,557.8 c 0,3 -0.4,10.9 6,12.9 6.4,2.1 9.8,2.1 12.1,1.1 2.3,-1 7.2,-1.1 8.1,-0.1 0.9,1.1 17.6,-1.9 18.8,-3.9 1.1,-2 0.3,-19 -4.3,-22 -5.3,-3.5 -38.5,-4 -39.6,2 -1.1,6 -1.1,10 -1.1,10 z"
   id="path7" />
<path
   d="m 140.4,545.7 c 0,0 2.9,-3.1 2.8,-5.1 -0.1,-2 0.9,-3 -3.2,-4.9 -4,-1.8 -6.2,-5.8 -12.2,-6.5 -6,-0.7 -17.9,-0.3 -20.7,3.8 -2.8,4.1 -4.9,2.2 -3.6,9.1 1.3,7 1.3,8 3.2,5.9 1.9,-2.1 11.5,-3.1 15.5,-3.3 4,-0.1 15.1,-0.9 18.2,1 z"
   id="path9" />
<path
   d="m 107.9,538 c 0,0 -2.5,-0.9 -2.7,-5.9 -0.2,-5 2,-11.1 3.6,-12.2 1.6,-1.1 4.7,-7.2 10.4,-7.4 5.7,-0.2 14.9,1.4 16.7,4.3 1.8,2.9 6,5.8 5.3,9.8 -0.7,4 0.6,12.9 -1.6,11 -2.2,-1.9 -11.6,-9.5 -15.7,-8.3 -4.1,1.2 -11.7,2.7 -15.4,7.6 -0.6,1.1 -0.6,1.1 -0.6,1.1 z"
   id="path11" />
<path
   d="m 140.4,524.7 c 0,0 2.4,-2.1 2.3,-4.1 -0.1,-2 -1,-4 -4.4,-5.8 -3.4,-1.8 -16.9,-8.3 -23.3,-4.1 -6.4,4.3 -12.1,8.5 -11.1,12.4 1,3.9 1.8,4.9 2.6,3.9 0.8,-1 21.1,-11.8 33.9,-2.3 z"
   id="path13" />
<path
   d="m 107,522.8 c 0,0 -3.1,-8 -3.1,-12 0,-4 0.8,-9 1.5,-10 0.7,-1 9.2,-9 16.8,-7 7.6,2 19.1,7 19.1,13 0,6 0.2,15.2 -5.3,14.6 -5.3,-0.6 -29,1.4 -29,1.4 z"
   id="path15" />
<path
   d="m 106.3,503.8 c -2.3,-3 -2.3,-3 -2.3,-6 0,-3 3.8,-6 6.9,-7 3.1,-1 30.6,-1 31.3,5 0.7,6 0.8,6 -3.8,10 -4.6,4 -32.1,-2 -32.1,-2 z"
   id="path17" />
<path
   d="m 106.3,496.8 c 0,0 -3.1,-4 -3.1,-12 0,-8 3.1,-14 4.6,-15 1.5,-1 25.2,-4 31.3,3 6.1,7 5.3,5 4.6,14 -0.7,9 -3.1,14 -6.9,13 -3.8,-1 -30.5,-3 -30.5,-3 z"
   id="path19" />
<path
   d="m 102.3,478.5 c -2.7,-2.9 -4.6,-6.8 -2.2,-10.9 2.4,-4.1 22.2,-4.1 22.2,-4.1 0,0 24.1,-0.1 23.6,5.9 -0.5,6 0.4,8 -5.6,9.3 -6.1,1.3 -38,-0.2 -38,-0.2 z"
   id="path21" />
<path
   d="m 100.2,470.6 c -1.9,-3.9 -4.4,-19.8 2.4,-23.1 6.8,-3.3 42,-4 43.3,5 1.3,8.9 1.6,15.9 -2.6,18.1 -4.3,2.1 -43.1,0 -43.1,0 z"
   id="path23" />
<path
   d="m 100.9,450.5 c -1.9,-2.9 -6.2,-22.7 -0.5,-29 5.7,-6.3 47.2,-4.2 47.7,5.8 0.5,10 2.9,24.9 -6.6,24.3 -9.5,-0.6 -40.6,-1.1 -40.6,-1.1 z"
   id="path25" />
<path
   d="m 147.1,423.3 c 1.3,-1.6 6,-19.3 -0.3,-25 -6.3,-5.7 -47.7,-6.8 -49,3.3 -1.2,10.1 -2.6,18.1 3.7,22.9 6.2,4.6 44.7,-0.2 45.6,-1.2 z"
   id="path27" />
<path
   d="m 146.9,401.3 c 4.1,-4.2 7.7,-20.4 -3,-26.9 -10.7,-6.5 -49.3,-2.7 -48.8,7.3 0.5,10 -2,13.1 4.4,19.8 6.4,6.7 47.4,-0.2 47.4,-0.2 z"
   id="path29" />
<path
   d="m 144.8,376.3 c 0,0 6.1,0.7 5.8,-4.3 -0.3,-5 2.1,-11.1 -4.9,-12.8 -7,-1.7 -51.1,-5.6 -53.2,4.5 -2.1,10.1 2.4,13.9 5,14.8 2.7,0.9 47.3,-2.2 47.3,-2.2 z"
   id="path31" />
<path
   d="m 145.2,364.8 c 5,-1 6,-7 7,-9 1,-2 5,-19 -6,-23 -11,-4 -31.7,-3.3 -45,2 -5,2 -20.1,5 -7,29 6,11 51,1 51,1 z"
   id="path33" />
<path
   d="m 145.4,345.4 c 4.4,-4.4 7.8,-6 6.4,-20.2 0,0 4.8,-19.3 0.3,-26.3 -2,-3.1 -5,-9.8 -18,-9.8 -13,0 -29.1,-0.8 -36.8,3 -7.4,3.6 -11.1,36.8 -6.1,45.6 2.2,3.9 0.3,5 11.2,6.6 4,0.4 43,1.1 43,1.1 z"
   id="path35" />
<path
   d="m 144.3,296 c 4.3,-1.3 6.2,-3.9 6.4,-4.9 0.1,-0.9 -2.9,-8.9 -5.8,-5.5 -2.9,3.4 -43.3,-6.6 -46.6,-6.1 -3.3,0.5 -7.3,5.7 -5.2,8.8 2,3.1 6.8,4.7 6.8,4.7 l 44.4,3 z"
   id="path37" />
<path
   d="m 147.5,286.8 c 1.6,-2.1 7.4,-8.3 7.4,-10.4 0,-2.1 0.8,-4.1 0,-11.4 -0.8,-7.3 -2.5,-14.5 -2.5,-17.6 0,-3.1 0,-11.4 -1.6,-12.4 -1.6,-1 -1.6,-1 -2.5,0 -0.9,1 -0.8,-1 -1.6,-2.1 -0.8,-1 -3.3,-3.1 -5.7,-3.1 -2.4,0 -11.4,3.1 -15.5,3.1 -4.1,0 -13.1,-3.1 -14.7,-2.1 -1.6,1 -3.3,3.1 -4.1,2.1 -0.8,-1 -1.6,-1 -2.5,0 -0.8,1 -0.8,4.1 -1.6,3.1 -0.8,-1 -2.6,-2.3 -3.3,-1 -1.6,3.1 -5.7,34.2 -3.3,40.4 2.5,6.2 4.1,9.3 7.4,10.4 3.3,1 44.1,1 44.1,1 z"
   id="path39" />
<path
   d="m 151.2,235.8 c 3,-2 10,-5 9,-10 -1,-5 1,-6 -1,-9 -2,-3 -2,-2 0,-3 2,-1 1,-4 1,-7 0,-3 -2,-5 -4,-6 -2,-1 -1,-9 -2,-10 -1,-1 -13,-8 -26,-8 -13,0 -25,4 -26,16 -0.4,4.5 -1,4 -3,7 -2,3 -2,7 -1,8 1,1 1,6 1,8 0,2 2,12 9,13 7,1 23,5 23,5 l 20,-4 z"
   id="path41" />
<path
   d="m 116.2,192.8 c 0,0 -4,-7 -2,-10 2,-3 13,-2 13,-4 0,-2 1,-5 -6,-5 -7,0 -12,7 -12,11 0,4 3,11 3,11 l 4,-3 z"
   id="path43" />
<path
   d="m 152.2,190.8 c 0,0 3,-8 -1,-10 -4,-2 -8,-3 -13,2 -5,5 0,5 0,5 0,0 10,-7 11,-4 1,3 0,6 0,6 l 3,1 z"
   id="path45" />
<path
   d="m 124.5,183.9 c 1.5,-3.7 3.5,-20.1 -3.9,-17.6 -7.4,2.5 -3.3,8.4 -1.9,13.2 1.3,4.8 1.2,8 1.2,8 l 4.6,-3.6 z"
   id="path47" />
<path
   d="m 121.2,167.6 c 0.7,-1.9 4.4,-11.2 -0.5,-9.8 -4.8,1.3 -5.6,-2.2 -4.6,3.6 1,5.7 2.1,8.3 2.1,8.3 l 3,-2.1 z"
   id="path49" />
<path
   d="m 121.3,159 c 1.1,-2.8 1.7,-15.4 -3.1,-14.1 -4.8,1.3 -3.9,1.7 -2.5,6.5 1.4,4.8 1.2,8 1.2,8 l 4.4,-0.4 z"
   id="path51" />
<path
   d="m 119,148.5 c 1.1,-2.8 3.4,-11.5 -1.4,-10.2 -4.8,1.3 -4.8,1.3 -3.7,3.9 1.1,2.6 1.9,6.1 1.9,6.1 l 3.2,0.2 z"
   id="path53" />
<path
   d="m 117.8,140.5 c 0.7,-1.9 2.9,-12.8 -1.8,-9.3 -4.6,3.6 -5.4,0 -3.7,3.9 1.7,3.9 3.2,5.5 3.2,5.5 l 2.3,-0.1 z"
   id="path55" />
<path
   d="m 117.2,133.8 c 0.5,-4.1 0.4,-14.9 -4.2,-11.3 -4.6,3.6 -5.2,2.3 -2.5,6.5 2.6,4.2 3.2,5.5 3.2,5.5 l 3.5,-0.7 z"
   id="path57" />
<path
   d="m 114.5,124.2 c 0.5,-4.1 0.4,-14.9 -3.8,-12.2 -4.2,2.6 -2.7,4.3 -1,8.2 1.7,3.9 1,5.7 1,5.7 l 3.8,-1.7 z"
   id="path59" />
<path
   d="m 112.2,113.6 c -0.6,-6.7 0.4,-14.9 -4.4,-13.5 -4.8,1.3 -2.2,5.6 0.1,10.8 2.3,5.2 2.3,5.2 2.3,5.2 l 2,-2.5 z"
   id="path61" />
<path
   d="m 108.3,101.4 c 0.2,-3.2 -0.1,-16.2 -5,-14.8 -4.9,1.4 1,11.1 2.7,15 1.8,3.9 2.3,-0.2 2.3,-0.2 z"
   id="path63" />
<path
   d="m 104.9,88.2 c -0.4,-4.5 -2.8,-20.4 -7,-17.8 -4.2,2.6 3.1,14.1 4.8,18 1.7,3.9 2.2,-0.2 2.2,-0.2 z"
   id="path65" />
<path
   d="M 99.3,72.1 C 99.5,68.9 98,53.4 93.2,54.7 c -4.8,1.3 1,11.1 4.4,18.9 3.4,7.8 1.7,-1.5 1.7,-1.5 z"
   id="path67" />
<path
   d="m 94.7,56.4 c -0.4,-4.5 -5.4,-19.3 -7,-17.8 -1.7,1.5 -2,2.4 0.3,7.6 2.3,5.2 4.2,11.3 4.2,11.3 l 2.5,-1.1 z"
   id="path69" />
<path
   d="M 88.3,39.9 C 87.9,35.4 85,23.6 82.4,24.7 c -2.6,1.1 0.6,6.7 1.8,9.3 1.2,2.6 2.8,6.5 2.8,6.5 l 1.3,-0.6 z"
   id="path71" />
<path
   d="m 83,26 c 0.2,-3.2 -4.2,-16.7 -5.9,-15.2 -1.7,1.5 0.6,6.7 1.2,8 0.6,1.3 3.4,7.8 3.4,7.8 L 83,26 z"
   id="path73" />
<path
   d="m 77.6,12.2 c -1.5,-7 -3.5,-13.2 -6,-12 -2.5,1.2 2.1,8.3 2.7,9.6 0.6,1.3 3,3.3 3,3.3 l 0.3,-0.9 z"
   id="path75" />
<path
   d="m 101,234.1 c -7.3,-2.3 -33.3,-7.5 -36.3,-9.3 -3.1,-1.8 -3.7,-6.2 -11.3,-0.6 -7.6,5.6 -6.7,11.2 -1.1,11.5 5.6,0.3 8.2,9.9 26.6,9.6 0,0 17.6,5.3 22.2,-1 4.6,-6.4 -0.1,-10.2 -0.1,-10.2 z"
   id="path77" />
<path
   d="m 53.2,224.8 c 1,-4 12,-42 10,-44 -2,-2 -1,-6 -7,-4 -6,2 -10,45 -10,47 0,2 2,6 4,4 2,-2 3,-3 3,-3 z"
   id="path79" />
<path
   d="m 61.2,176.8 c 1,-1 2,-3 0,-5 -2,-2 -10,-23 -12,-17 -2,6 -3,4 -2,5 1,1 10,17 10,17 h 4 z"
   id="path81" />
<path
   d="m 51.2,159.1 c -2.7,-8.6 -7.4,-10.2 -7.4,-11.9 0,-1.7 0.4,-4.6 0.4,-6.4 0,-1.7 -4.4,-2.3 -6.4,0.3 -2,2.6 -4.3,8.4 -1.6,6.7 2.7,-1.7 8,7 8,7 l 4.3,6 2.7,-1.7 z"
   id="path83" />
<path
   d="m 147,235 c 7.6,0.2 35.8,-6.2 38.1,-6.5 2.3,-0.4 18.7,-7.2 18.8,-0.6 0.1,6.6 -1.8,9.2 -11.3,11.7 -9.5,2.5 -27.9,8.7 -34.2,7.8 -6.3,-0.9 -15.9,-1.7 -15.9,-1.7 L 147,235 z"
   id="path85" />
<path
   d="m 204.5,227.3 c 2.6,-6.2 -4.5,-36.8 -5.7,-39.7 -1.2,-2.9 -2.8,-20.1 -8.9,-14.8 -6,5.2 -1.7,13.3 -1.7,13.3 l 12.1,39.5 4.2,1.7 z"
   id="path87" />
<path
   d="m 192.2,177.6 c 3.3,-3 15.1,-26.2 8.5,-27.4 -6.6,-1.3 -14.7,24 -14.1,25.9 0.6,1.9 5.6,1.5 5.6,1.5 z"
   id="path89" />
<path
   d="m 98,300.4 c -22.6,0.2 -60.8,6.1 -60.7,8.9 0.1,2.8 0.8,14.8 7.9,12 7.1,-2.9 41.6,-10.9 48.7,-11 7,0 4.1,-9.9 4.1,-9.9 z"
   id="path91" />
<path
   d="m 39,319.1 c -4.8,-1.5 -7.3,-2.7 -5.1,-5.6 2.2,-2.9 2.8,-4.1 -1.4,-13.3 -4.2,-9.2 -11.7,-24.5 -5.1,-26.8 6.6,-2.3 8.6,6.5 9.3,11.6 0.7,5.1 9.8,25.2 8.3,29.9 -1.6,4.8 -6,4.2 -6,4.2 z"
   id="path93" />
<path
   d="m 29.8,273.3 c 0.2,-2.7 -5.4,-10.1 -8.4,-11.5 -3,-1.4 -2.9,-2.6 -4.7,0.8 -1.8,3.4 -6.5,4.3 -3.6,6.9 2.8,2.7 16.1,11 16.7,3.8 z"
   id="path95" />
<path
   d="m 153.3,311.4 c 3,1.1 50.5,20.3 49.8,22.2 -0.7,1.9 -5.5,3.3 -6.2,5.2 -0.7,1.9 2.3,8.3 -2.1,5.6 -4.3,-2.7 -33.1,-18.2 -38.8,-20.3 -5.6,-2.1 -13.1,-4.8 -10.5,-9.2 2.7,-4.2 3.1,-5.2 7.8,-3.5 z"
   id="path97" />
<path
   d="m 202.3,333.9 c 4.5,-1.3 4.2,0.3 8.3,-0.5 4.1,-0.7 7,-4.9 8.9,0 1.9,4.9 -0.2,5.3 -4.2,6 -4.1,0.7 -12.3,-1.4 -14.6,3.2 -2.3,4.6 -5.5,-4.8 -5.1,-5.4 0.4,-0.6 -1.3,-2.5 1.7,-2.4 2.5,0 5,-0.9 5,-0.9 z"
   id="path99" />
<path
   d="m 219.5,332.2 c 1.5,1.6 13.7,6.1 10.1,10.1 -3.6,4 -2.1,5.6 -7,1.7 -4.9,-3.9 -9.9,-7.9 -9.5,-8.8 0.4,-1 6.4,-3 6.4,-3 z"
   id="path101" />
<path
   d="m 227.8,338.6 c 1.8,-0.4 7.2,0.5 7.5,1.7 0.4,1.2 0,2.1 2.2,2.9 2.2,0.8 3.9,0.4 4.3,1.6 0.4,1.2 0.7,0.3 1.4,0.5 0.7,0.3 2.6,4.1 1.2,5.8 -1.4,1.6 -1.4,-0.5 -2.5,2.3 -1,2.8 -6,5.3 -2.8,1.1 3.2,-4.2 -3.3,-4.4 -4.4,-5.9 -1.1,-1.5 -5.8,-2.1 -6.5,-4.5 -0.8,-2.4 -2.9,-1.1 -2.9,-1.1 l 2.5,-4.4 z"
   id="path103" />
<path
   d="m 150.4,355.5 c 6.3,-0.8 22.5,14.9 29,25.5 6.5,10.6 31.2,43.3 24.9,43.2 -6.3,-0.1 -6.6,-1.1 -8.9,1.7 -2.3,2.8 -18.6,-20 -23.2,-28 -4.6,-8 -17.9,-23.7 -22,-26.6 -4.1,-2.9 -10.9,-14.4 0.2,-15.8 z"
   id="path105" />
<path
   d="m 192.7,410.1 c 6.1,1.9 20.4,20.2 24.7,24.5 4.3,4.2 15.5,11.9 13.4,15.8 -2.1,3.9 -5.1,1.7 -8.8,-2.1 -3.7,-3.8 -22.5,-27.4 -27.4,-28.4 -4.9,-1 -7.1,-1.8 -6.8,-3.4 0.3,-1.7 4.9,-6.4 4.9,-6.4 z"
   id="path107" />
<path
   d="m 229.5,448 c 0.9,8.9 1.8,17.9 -1.7,17.5 -3.6,-0.4 -2.6,-2.9 -2.7,-5.8 -0.1,-2.9 0,-11.4 2,-11.6 1.8,-0.3 2.4,-0.1 2.4,-0.1 z"
   id="path109" />
<path
   d="m 230.8,462.3 c 0.9,6.3 2.8,21.8 4.3,23.2 1.5,1.4 -0.5,5 -5.5,4.4 -5,-0.6 -5.1,-3.4 -2.3,-4.9 2.8,-1.5 -1.2,-13.4 -1.9,-14.1 -0.7,-0.7 2.6,-7.2 1.1,-9.9 -1.5,-2.7 4.3,1.3 4.3,1.3 z"
   id="path111" />
<path
   d="m 93.8,359.5 c -6.3,-0.8 -22.5,14.9 -29,25.5 -6.5,10.5 -27.2,35.3 -20.9,35.2 6.3,-0.1 6.6,-1.1 8.9,1.7 2.3,2.8 14.6,-12 19.2,-20 4.6,-8 17.9,-23.7 22,-26.6 4.1,-2.9 10.9,-14.4 -0.2,-15.8 z"
   id="path113" />
<path
   d="m 41.1,419.3 c -2.7,5 4.2,23.8 5.1,28.8 0.8,5 -0.1,16.3 5.1,16.9 5.2,0.7 7.8,-4.9 6.9,-9.3 -0.9,-4.4 -12,-22 -4,-27 3.9,-2.4 -1.8,-8.8 -3.5,-9.5 -1.7,-0.7 -9.6,0.1 -9.6,0.1 z"
   id="path115" />
<path
   d="m 49.6,457.4 c -9.4,6.5 -18.8,13 -13.3,15.7 5.5,2.7 6.3,-0.1 9.1,-2.4 2.8,-2.3 10.3,-9.3 7.7,-11.2 -2.6,-1.9 -3.5,-2.1 -3.5,-2.1 z"
   id="path117" />
<path
   d="m 37.5,469.6 c -2.9,5.7 -7,12.5 -8.8,13.3 -1.8,0.8 -1.1,4.9 3.8,6 4.9,1.1 5.9,-1.5 3.8,-3.9 -2.1,-2.3 5.5,-12.3 6.4,-12.7"
   id="path119" />
<path
   d="m 145.2,185.8 c 0,-7 6,-21 2,-21 -4,0 -3,-3 -5,-1 -2,2 -6,16 -4,20 2,4 7,2 7,2 z"
   id="path121" />
<path
   d="m 147.2,166.8 c 2,-1 3,-2 3,-3 0,-1 3,-8 0,-8 -3,0 -5,-1 -6,2 -1,3 -1,7 -1,7 l 4,2 z"
   id="path123" />
<path
   d="m 150.2,156.8 c 1,-1 8,-13 3,-14 -5,-1 -5,3 -5,3 0,0 -3,10 -2,11 1,1 4,0 4,0 z"
   id="path125" />
<path
   d="m 152.2,144.8 c 0,0 7,-4 5,-6 -2,-2 -3,-3 -5,-2 -2,1 -3,6 -2,7 1,1 2,1 2,1 z"
   id="path127" />
<path
   d="m 156.2,138.8 c 1,-1 6,-7 1,-8 -5,-1 -5,4 -5,4 l 1,4 h 3 z"
   id="path129" />
<path
   d="m 158.2,132.8 c 1,-1 7,-10 2,-11 -5,-1 -5,4 -5,5 0,1 -1,6 1,6 2,0 2,0 2,0 z"
   id="path131" />
<path
   d="m 161.2,123.8 c 2,-2 8,-10 2,-11 -6,-1 -4,5 -5,7 -1,2 3,4 3,4 z"
   id="path133" />
<path
   d="m 164.2,113.8 c 2,-2 8,-11 3,-12 -5,-1 -5,3 -5,4 0,1 -2,8 -1,8 1,0 3,0 3,0 z"
   id="path135" />
<path
   d="m 167.2,103.8 c 2,-4 8,-15 4,-15 -4,0 -6,10 -6,15 0,5 2,0 2,0 z"
   id="path137" />
<path
   d="m 171.2,90.8 c 4,-7 11,-16 5,-17 -6,-1 -7,18 -7,18 l 2,-1 z"
   id="path139" />
<path
   d="m 176.2,75.8 c 2,-4 9,-14 5,-15 -4,-1 -7,11 -7,15 0,4 2,0 2,0 z"
   id="path141" />
<path
   d="m 181.2,62.8 c 1,-1 10,-16 6,-18 -4,-2 -9,17 -8,18 1,1 2,0 2,0 z"
   id="path143" />
<path
   d="m 185.9,49 c 3.4,-2.9 11.4,-12.1 9,-13.6 -2.4,-1.5 -5.1,4.4 -6.6,6.8 -1.5,2.4 -3.6,6.1 -3.6,6.1 l 1.2,0.7 z"
   id="path145" />
<path
   d="m 194.2,36.6 c 2.7,-1.7 11.2,-13.1 9,-13.6 -2.2,-0.5 -5.1,4.4 -5.8,5.6 -0.7,1.2 -4.4,7.3 -4.4,7.3 l 1.2,0.7 z"
   id="path147" />
<path
   d="m 202.5,24.3 c 4.9,-5.3 8.7,-10.4 6.3,-11.9 -2.4,-1.5 -5.6,6.5 -6.3,7.8 -0.7,1.2 -1,4.4 -1,4.4 l 1,-0.3 z"
   id="path149" />
<path
   d="m 201.2,156.8 c 3,-1 19,-14 10,-20 -9,-6 -10,4 -8,6 2,2 -3,9 -3,9 l 1,5 z"
   id="path151" />
<path
   d="m 18.9,262.6 c -0.1,-2 -2.2,-3.9 -4.2,-3.8 -2,0.1 -3.3,-5.8 -2.4,-6.9 0.9,-1.1 -7.6,-10.6 -11.2,-3.4 -3.6,7.2 2.7,12.9 6.8,14.6 4.1,1.7 7.3,4.6 8.2,3.5 1,-0.9 2.8,-4 2.8,-4 z"
   id="path153" />
<path
   d="m 143.2,567.8 c 1,8 3,20 -8,26 -11,6 -11,5 -10,0 1,-5 8,-7 10,-10 2,-3 5,-13 2,-17 -3,-4 6,1 6,1 z"
   id="path155" />
</svg>